inDegrees=yes
name=ik_S40_A11_T01
DataType=double
version=3
OpenSimVersion=4.3-2021-08-27-4bc7ad9
endheader
time	pelvis_tilt	pelvis_list	pelvis_rotation	pelvis_tx	pelvis_ty	pelvis_tz	hip_flexion_r	hip_adduction_r	hip_rotation_r	knee_angle_r	knee_angle_r_beta	ankle_angle_r	subtalar_angle_r	mtp_angle_r	hip_flexion_l	hip_adduction_l	hip_rotation_l	knee_angle_l	knee_angle_l_beta	ankle_angle_l	subtalar_angle_l	mtp_angle_l	lumbar_extension	lumbar_bending	lumbar_rotation	arm_flex_r	arm_add_r	arm_rot_r	elbow_flex_r	pro_sup_r	wrist_flex_r	wrist_dev_r	arm_flex_l	arm_add_l	arm_rot_l	elbow_flex_l	pro_sup_l	wrist_flex_l	wrist_dev_l
11.59999999999984	0.2873099455022006	0.1012984268366557	20.39335264507844	0	0.9399999999999999	0	42.13522308477254	-9.986818244288161	-9.921522126001149	50.28801495620152	0.8776914352778685	0	0	0	42.13522308477254	-9.986818244288161	-9.921522126001149	50.28801495620152	0.8776914352778685	0	0	0	0.834107105077026	0.2104764609526763	11.7367999574858	20.54530853996335	-20.41888515487124	-20.48632966565212	25.9170034962544	84.07580566083351	0	0	1.480214588252728	-0.3104407189091819	-5.098752976815762	1.678731532314122	92.21597838167463	0	0
11.61999999999984	0.09615987903425238	0.3059214086561362	19.93243407971955	0	0.9399999999999999	0	42.16987015121836	-9.987201781330072	-9.923207843853644	50.33753655580978	0.8785557502418871	0	0	0	42.16987015121836	-9.987201781330072	-9.923207843853644	50.33753655580978	0.8785557502418871	0	0	0	0.7312903295729245	0.4590420596810861	11.79313525410193	15.2349242444794	-17.58788532537427	-23.85771465590702	24.0525253076489	88.30100132366881	0	0	1.228669930623365	-0.209886610670817	-5.164849171836017	1.901749624676232	92.2642283542004	0	0
11.63999999999984	-0.01078832199310928	0.4523753522630104	19.76406624800802	0	0.9399999999999999	0	42.18823192411887	-9.987407613853387	-9.924109619600971	50.36322002152413	0.8790040112819255	0	0	0	42.18823192411887	-9.987407613853387	-9.924109619600971	50.36322002152413	0.8790040112819255	0	0	0	0.6795831626312905	0.6432631270199022	11.70527286598504	13.21641603157945	-15.53369566319612	-24.83127570134247	16.07999402401617	91.39118295878136	0	0	1.149240505035117	0.002877317160482839	-5.341634873956409	2.002698985530156	92.32925305352705	0	0
11.65999999999984	-0.05578535875242564	0.6598475046701813	19.58761422218555	0	0.9399999999999999	0	42.19914304366706	-9.987534050355029	-9.924657882489088	50.37790389640578	0.8792602932455611	0	0	0	42.19914304366706	-9.987534050355029	-9.924657882489088	50.37790389640578	0.8792602932455611	0	0	0	0.7089031992192645	0.8542549640583145	11.54737317703568	11.13658735127451	-14.06644820990196	-25.43925581252651	7.599865060707527	95.09649185905728	0	0	1.003483454373298	0.2718817798226136	-5.640153857814401	1.997145030164877	92.65965674524728	0	0
11.67999999999984	-0.03337514930115801	0.8865635161243649	19.45196810943772	0	0.9399999999999999	0	42.20439658935776	-9.987597466415377	-9.924929097115726	50.3846957261645	0.8793788330370857	0	0	0	42.20439658935776	-9.987597466415377	-9.924929097115726	50.3846957261645	0.8793788330370857	0	0	0	0.8066313966918562	1.06063326940718	11.39648659924926	9.148864431093687	-12.86560018929955	-25.35480589974814	5.556257730506688	96.14634084385449	0	0	0.8326041587236899	0.2922854562945874	-6.063095623454251	1.897177032709055	93.10779030364581	0	0
11.69999999999984	0.01360078525325433	1.096469656581871	19.35537950544229	0	0.9399999999999999	0	42.20946274629342	-9.987658110521702	-9.925189518075621	50.39124489366375	0.8794931375732123	0	0	0	42.20946274629342	-9.987658110521702	-9.925189518075621	50.39124489366375	0.8794931375732123	0	0	0	0.9223030798173801	1.239679955443122	11.2860378813787	7.140376883359137	-11.7147781188949	-25.44834837610869	4.073622619349288	97.16777096626822	0	0	0.578721038077218	0.4337334683898126	-6.249445750646775	1.827360774667862	93.44043932128523	0	0
11.71999999999984	0.05580836053782633	1.199956083458752	19.16038109319939	0	0.9399999999999999	0	42.21096505926947	-9.98768128472061	-9.925279630429591	50.39291193650127	0.8795222329594988	0	0	0	42.21096505926947	-9.98768128472061	-9.925279630429591	50.39291193650127	0.8795222329594988	0	0	0	0.996125844182884	1.327690617061499	11.35212936282699	5.330916505242401	-10.73906777866878	-25.85932308489682	3.182394992973943	98.53673049165333	0	0	0.3320762944557852	0.4448520283352168	-6.050413423999824	1.703447825917719	94.07958840951916	0	0
11.73999999999984	0.1143818762930168	1.322327818272405	18.86318421855773	0	0.9399999999999999	0	42.21247426779407	-9.987704551010726	-9.925370141109157	50.39458564564035	0.8795514446946965	0	0	0	42.21247426779407	-9.987704551010726	-9.925370141109157	50.39458564564035	0.8795514446946965	0	0	0	1.089730454187698	1.428394945745077	11.43330308308193	3.69515306847642	-10.15658222284069	-26.48476789165116	2.447374164322299	100.5863475444818	0	0	-0.08298921244570329	0.5396211906865825	-5.569787369509489	1.825526883101309	93.69651407261925	0	0
11.75999999999984	0.08417451309095006	1.381250667027861	18.57044410196601	0	0.9399999999999999	0	42.21392086050421	-9.98772686535273	-9.925456947855142	50.39618747725166	0.8795794019303763	0	0	0	42.21392086050421	-9.98772686535273	-9.925456947855142	50.39618747725166	0.8795794019303763	0	0	0	1.079877287088344	1.493810814794701	11.46279692865944	2.516142933391158	-9.876865913314843	-27.08981095541785	2.72236406820851	102.0289866642846	0	0	-0.3518609270624928	0.643785843837577	-4.956925554423221	1.892697054753369	93.4960651318237	0	0
11.77999999999984	0.01397407122323836	1.408421582277164	18.29083884629497	0	0.9399999999999999	0	42.21507905026751	-9.987744578061092	-9.925526069280719	50.39747896749203	0.8796019426873283	0	0	0	42.21507905026751	-9.987744578061092	-9.925526069280719	50.39747896749203	0.8796019426873283	0	0	0	1.021167311291729	1.542875115297097	11.49801275977611	2.692434509396266	-9.770361089623639	-26.84727252145598	0.775715214632928	104.0458402383792	0	0	-0.4531687384409706	0.7565573981816837	-4.415702569674294	1.870249089775592	93.2926568506079	0	0
11.79999999999984	-0.006308889836725512	1.458147695438267	17.99193540527419	0	0.9399999999999999	0	42.21641757545714	-9.987765134969909	-9.92560618925979	50.39896443376279	0.8796278689646801	0	0	0	42.21641757545714	-9.987765134969909	-9.92560618925979	50.39896443376279	0.8796278689646801	0	0	0	1.016777944583511	1.594498655144023	11.54821057807603	1.723119041115616	-9.515112438553272	-27.42345945666401	0.0306374536469897	106.5684134877934	0	0	-0.566126505280748	0.817596000346317	-4.020740765311439	1.747191855277813	93.26007925652544	0	0
11.81999999999984	0.06263963747705396	1.547380424852138	17.71661144263692	0	0.9399999999999999	0	42.21758946430355	-9.987782992833381	-9.925675987931022	50.4002732279422	0.8796507117323419	0	0	0	42.21758946430355	-9.987782992833381	-9.925675987931022	50.4002732279422	0.8796507117323419	0	0	0	1.110666746757345	1.657278003503294	11.54019015127976	1.600209611251965	-9.421332191745773	-27.18069789656553	-1.636256636244671	108.0178557495012	0	0	-0.7871426421330789	0.8323044375599008	-3.899565939754809	1.574729054214746	93.43279253623815	0	0
11.83999999999984	0.1066097806448365	1.581656224492899	17.58769580383259	0	0.9399999999999999	0	42.21852184470072	-9.987797202669046	-9.925731531693961	50.40131387395261	0.8796688744315713	0	0	0	42.21852184470072	-9.987797202669046	-9.925731531693961	50.40131387395261	0.8796688744315713	0	0	0	1.1636957793041	1.67778660184913	11.53221830374661	-0.1810728971377367	-8.665074156895367	-27.11875394973072	-1.328562835177115	108.5818128512474	0	0	-0.8327893127384171	0.7964788845575251	-3.792284754423402	1.373915974232107	93.64279014773112	0	0
11.85999999999984	0.1718402938754687	1.650741457776318	17.24501240121715	0	0.9399999999999999	0	42.21935326915758	-9.987809825453496	-9.925780941723735	50.40224464243148	0.8796851194061013	0	0	0	42.21935326915758	-9.987809825453496	-9.925780941723735	50.40224464243148	0.8796851194061013	0	0	0	1.253167217617404	1.719721540042953	11.32978757801963	-1.042546084156671	-8.0093603716833	-26.13636302906155	-1.588772275802624	108.1568713395462	0	0	-0.9608634859406521	0.7947344190815259	-4.15062411919096	1.241353681074429	93.78904296432299	0	0
11.87999999999984	0.1956336462175554	1.688402455744827	17.10041968736061	0	0.9399999999999999	0	42.22086207805645	-9.987832857743518	-9.925870948448187	50.40392358855404	0.8797144225439035	0	0	0	42.22086207805645	-9.987832857743518	-9.925870948448187	50.40392358855404	0.8797144225439035	0	0	0	1.289549213050895	1.747475242038987	11.25644654547097	-2.102291114947198	-7.092513269389388	-25.60455182801503	-1.324280844091277	106.7424524470849	0	0	-1.038627039066092	0.8337370482327178	-4.380993153677179	1.207786564886497	93.98725556445181	0	0
11.89999999999984	0.2915967991756701	1.75132014525059	16.93113927172401	0	0.9399999999999999	0	42.22166280403876	-9.987845042630905	-9.925918625219431	50.40481637463186	0.8797300046004776	0	0	0	42.22166280403876	-9.987845042630905	-9.925918625219431	50.40481637463186	0.8797300046004776	0	0	0	1.39930933586824	1.778910298373225	11.2747231162233	-2.279794072093087	-6.881399482633224	-25.52196158413647	-2.064926819108445	105.5777439555671	0	0	-1.231328069709261	0.8052123657910253	-4.414920187319808	1.138602588068405	94.04300396835326	0	0
